<svg width="145" height="56" viewBox="0 0 145 56" fill="none" xmlns="http://www.w3.org/2000/svg">
<path d="M62.7535 16.2812C69.3262 16.2815 74.6735 21.8398 74.6735 28.1396V39.4092H70.0455V35.6484L69.7086 35.5596C68.8936 37.5576 65.9418 40 62.5612 40C55.9885 39.9999 50.8329 34.708 50.8326 28.2031C50.8326 21.698 56.1808 16.2812 62.7535 16.2812ZM88.0699 16.2812C94.6428 16.2812 99.9908 21.8396 99.9908 28.1396V39.4092H95.3629V35.6484L95.026 35.5596C94.211 37.5576 91.2591 40 87.8785 40C81.306 40 76.1502 34.7081 76.15 28.2031C76.15 21.6981 81.4974 16.2815 88.0699 16.2812ZM132.705 16.2812C139.277 16.2814 144.625 21.6304 144.625 28.2031C144.625 28.5991 144.527 29.7143 144.526 29.7217H126.146C126.855 32.8183 129.605 35.0613 132.701 35.0615C136.74 35.0615 138.522 31.6143 138.522 31.6143H144.125C143.162 35.1356 139.307 39.9999 132.705 40C126.102 40 120.784 34.7768 120.784 28.2031C120.784 21.6293 126.132 16.2812 132.705 16.2812ZM17.1891 30.6387C19.7737 30.6387 21.8695 32.7338 21.8698 35.3184C21.8698 37.903 19.7739 39.999 17.1891 39.999C14.6044 39.999 12.5094 37.903 12.5094 35.3184C12.5097 32.7338 14.6046 30.6387 17.1891 30.6387ZM29.4186 30.6387C32.0032 30.6387 34.099 32.7338 34.0992 35.3184C34.0992 37.903 32.0034 39.999 29.4186 39.999C26.8339 39.9988 24.7389 37.9029 24.7389 35.3184C24.7392 32.7339 26.8341 30.6389 29.4186 30.6387ZM23.3014 16C36.0079 16 46.3105 26.4992 46.3082 39.4463H40.4313C40.4313 29.7434 32.8225 21.876 23.3014 21.876C13.7805 21.876 6.17249 29.7434 6.17249 39.4463H0.294556C0.29123 26.4992 10.5939 16 23.3014 16ZM110.42 33.4736L117.382 16.875H122.578L113.081 39.4072H107.759L98.2604 16.875H103.458L110.42 33.4736ZM62.7535 21.2178C59.0415 21.2178 56.0192 24.3342 56.0192 28.166C56.0192 31.9978 59.0403 35.0625 62.7535 35.0625C66.4666 35.0622 69.4869 31.9689 69.4869 28.166C69.4869 24.3632 66.4665 21.218 62.7535 21.2178ZM88.0699 21.2178C84.358 21.218 81.3366 24.3343 81.3365 28.166C81.3365 31.9977 84.3569 35.0623 88.0699 35.0625C91.7832 35.0625 94.8043 31.969 94.8043 28.166C94.8043 24.363 91.7832 21.2178 88.0699 21.2178ZM132.705 21.2178C129.734 21.2178 127.156 23.178 126.277 26.0996H139.132C138.25 23.1781 135.673 21.2179 132.705 21.2178Z" fill="#121514"/>
</svg>
