<svg width="145" height="56" viewBox="0 0 145 56" fill="none" xmlns="http://www.w3.org/2000/svg">
<path d="M19.9961 42.3076L14.3047 48L0 33.6924L5.69141 28L19.9961 42.3076ZM33.3291 32.3086C35.4634 32.3087 37.51 33.1562 39.0195 34.665L25.6875 48L19.9961 42.3076L27.6377 34.665C29.1473 33.156 31.1946 32.3086 33.3291 32.3086ZM61.3262 16.5742C66.641 16.5742 70.8934 20.1061 71.8936 25.2959H67.1729C66.2666 22.731 64.0773 21.1064 61.3262 21.1064C57.6063 21.1065 54.8244 24.0774 54.8242 28.0146C54.8242 31.9546 57.6062 34.8935 61.3262 34.8936C64.2036 34.8936 66.4228 33.1427 67.2041 30.3916H71.9873C70.9859 35.8014 66.7348 39.4258 61.3262 39.4258C54.8862 39.4257 50.0088 34.4871 50.0088 28.0146C50.009 21.5124 54.8863 16.5743 61.3262 16.5742ZM130.838 30.4834C130.838 33.2034 132.619 34.9551 135.151 34.9551C137.653 34.955 139.435 33.2046 139.435 30.4834V17.043H144.187V30.7041C144.186 35.8314 140.31 39.4257 135.151 39.4258C129.961 39.4258 126.085 35.8313 126.085 30.7051V17.041H130.838V30.4834ZM105.941 21.4502H97.5938V26.2646H105.129V30.5479H97.5938V38.9258H92.875V17.043H105.941V21.4502ZM88.54 17.043V21.4189H80.1299V25.7646H87.7275V30.0479H80.1309V34.5498H88.8848V38.9248H75.4102V17.043H88.54ZM122.673 17.043V21.4502H114.325V26.2637H121.86V30.5459H114.325V38.9248H109.604V17.043H122.673ZM39.0195 21.335C37.51 22.8438 35.4634 23.6913 33.3291 23.6914C31.1946 23.6914 29.1473 22.844 27.6377 21.335L20 13.6953L5.69531 28L0.00488281 22.3076L14.3096 8L20 13.6904L25.6875 8L39.0195 21.335Z" fill="#121514"/>
</svg>
