<svg width="140" height="56" viewBox="0 0 140 56" fill="none" xmlns="http://www.w3.org/2000/svg">
<path d="M24.1143 15.3467V8H48.2285V28H43.9512L48.2285 32.3057V48H31.4668L24.1143 40.6533V48H0V28H4.27734L0 23.6943V8H16.7617L24.1143 15.3467ZM24.1348 16.2031C24.0957 20.1337 24.1159 24.0686 24.1143 28H5.21387L24.0928 39.7959C24.1319 35.8653 24.1126 31.9304 24.1143 27.999C30.427 27.999 36.7438 28.0161 43.0557 27.9785L24.1348 16.2031ZM61.1523 32.9072C60.2244 27.1791 64.3964 22.4931 70.2041 22.9805C71.8365 23.1177 73.4812 23.6314 74.7861 24.6338V27.959L73.6328 27.2578C69.3803 25.1615 64.5446 26.3607 64.8867 31.8994C65.1947 36.8815 70.6008 37.3732 74.0908 35.1602C74.3685 34.9839 74.6191 34.7494 74.9082 34.6123V37.9795C73.643 39.0211 72.0316 39.5645 70.4072 39.7139C65.8314 40.1342 61.906 37.5568 61.1523 32.9072ZM97.3115 25.6328C98.8064 23.4336 101.387 22.6195 103.952 23.2031C110.578 24.711 111.37 34.6802 106.245 38.3594C103.267 40.498 98.7346 40.0682 96.8438 36.7344L96.457 39.2246H93.4834V18H97.3115V25.6328ZM80.5283 32.3076C80.5878 34.0806 81.1692 36.2623 83.2773 36.4102C85.8036 36.5873 86.9254 34.6484 87.1299 32.3896L87.1289 23.4697H90.957V39.2246H88.0244L87.6992 36.7354C86.8112 38.0871 85.5712 39.1452 83.959 39.4971C79.7572 40.4135 76.829 37.3949 76.7402 33.3281L76.7412 23.4697H80.5293L80.5283 32.3076ZM119.229 24.0645C121.765 22.4508 125.498 22.9055 127.983 24.4082V27.5918C127.938 27.5982 127.902 27.5888 127.859 27.5742C127.588 27.4787 127.145 27.1557 126.83 27.0137C125.451 26.3908 121.948 25.6451 120.943 27.1289C120.297 28.084 121.029 28.7908 121.859 29.1777C123.683 30.0275 125.853 30.1475 127.455 31.5303C129.674 33.447 129.164 37.0974 126.759 38.6289C123.921 40.4354 119.726 39.6348 116.985 37.9785V34.7744C118.18 35.5066 119.461 36.1611 120.854 36.4297C122.062 36.6623 124.665 36.7846 125.181 35.334C125.58 34.2084 124.552 33.5918 123.677 33.2334C121.522 32.3509 118.198 32.0116 117.341 29.4189C116.68 27.419 117.463 25.1885 119.229 24.0645ZM135.438 18.0215V23.4287H139.938L140 23.4893V26.5303H135.438L135.436 33.8584C135.502 34.3588 135.519 34.8613 135.715 35.334C136.387 36.9544 138.49 36.3428 139.715 35.7959V38.6328C139.002 39.1364 138.066 39.4216 137.204 39.5449C134.097 39.9882 131.957 38.6653 131.65 35.4492C131.559 32.4802 131.633 29.5027 131.608 26.5312H128.961V23.4697H131.608V20.5928L135.356 17.9795L135.438 18.0215ZM115.071 39.2236H111.283V23.4688H115.071V39.2236ZM100.917 36.4072C107.412 36.9411 107.292 25.7314 100.929 26.2979C95.7818 26.7558 96.0244 36.0052 100.917 36.4072ZM112.985 16.2568C116.276 16.0226 116.503 20.4546 113.421 20.6924C110.205 20.9405 109.736 16.4881 112.985 16.2568Z" fill="#121514"/>
</svg>
