<svg width="96" height="56" viewBox="0 0 96 56" fill="none" xmlns="http://www.w3.org/2000/svg">
<path d="M81.0293 35.5049C83.5612 35.505 85.498 37.3843 85.498 39.9297C85.498 40.1417 85.4976 40.3233 85.4473 40.5352H77.2969C77.2464 40.8584 77.2461 38.8184 77.2461 41.5459C77.2462 44.2732 79.3141 46.122 81.0088 46.1221C82.7035 46.1221 83.7328 45.536 84.8223 43.9805L85.458 44.374C84.661 46.3541 84.0553 48.0009 80.7471 48.001C77.4383 48.001 75.2393 45.6467 75.2393 41.9697C75.2394 38.2929 77.7607 35.5147 81.0391 35.5146L81.0293 35.5049ZM60.4707 35.5762C61.7617 35.5762 62.7707 36.0208 63.4062 36.9502C63.8298 37.5563 64.2031 38.6169 64.2031 39.8086V42.3438C64.2031 43.1618 64.2035 43.9298 64.2539 44.748V44.7686C64.3044 45.6373 64.728 46.3042 65.5752 46.6982L65.2324 47.7588C63.4067 47.688 62.7206 46.8901 62.4785 45.6982H62.4277C61.7115 47.3042 61.0556 47.9707 59.3613 47.9707C57.6666 47.9707 56.6074 46.6975 56.6074 45.4551C56.6076 44.2129 57.2427 43.4754 58.2715 42.8086C59.2499 42.1722 60.9951 41.5358 62.3467 41.1924V39.8994C62.3467 39.0813 62.1351 38.4448 61.792 37.9902C61.3987 37.4652 61.0256 37.253 60.1279 37.2529C59.2303 37.2529 58.4836 37.6169 57.5859 38.334L57.0811 37.4854C57.5854 36.556 59.1795 35.5762 60.4707 35.5762ZM78.4268 29.7861C77.9525 30.2104 77.6596 30.6851 77.1553 31.6953H77.1455C76.7522 32.4933 76.4389 33.2808 76.1162 33.998L71.4258 44.585C70.9215 45.7261 70.417 46.5442 69.8926 47.0996C69.4488 47.5542 68.6008 47.9482 67.8848 47.9482C67.1686 47.9481 66.6445 47.4126 66.6445 46.8369C66.6448 46.2613 67.1491 45.7568 67.6533 45.7568C68.1575 45.7569 68.2685 45.8877 68.8232 45.8877C69.3779 45.8876 69.7813 45.4635 70.1748 44.6152L72.0811 40.4834L69.459 33.998C69.1666 33.2505 68.823 32.2709 68.3994 31.3213C67.9959 30.4528 67.814 30.2105 67.1787 29.7861L67.29 29.1797C68.0567 29.2303 68.8538 29.2607 69.4287 29.2607C70.0036 29.2607 70.4875 29.2303 71.2539 29.1797L71.335 29.7861C70.75 30.0488 70.5381 30.2307 70.5381 30.8467C70.5381 31.4628 70.6387 31.958 71.4355 33.9473L73.0801 38.0693L74.8252 33.9678C75.5413 32.3015 75.6425 31.7457 75.6426 31.1904C75.6426 30.6349 75.5112 30.2104 74.7148 29.7861L74.8252 29.1797C75.5919 29.2606 76.036 29.2607 76.6211 29.2607C77.206 29.2607 77.5792 29.2606 78.3457 29.1797L78.4268 29.7861ZM49.0918 29.626C48.0326 30.0501 47.8513 30.6361 47.7705 31.7979C47.6898 32.6766 47.6895 33.8382 47.6895 34.7676V42.0713C47.6895 43.0006 47.7201 44.4349 47.7705 44.96C47.9017 46.263 48.2745 46.4951 49.4648 46.4951C50.655 46.4951 51.4014 46.4955 52.168 46.3643C53.1262 46.1825 53.6311 45.7583 54.0244 45.1523H54.0146C54.3575 44.6473 54.6501 44.041 54.9932 43.0107L55.7598 43.1416C55.6186 44.8385 55.3862 46.1821 55.0938 47.667C53.0057 47.5659 50.6755 47.5361 47.2861 47.5361C45.9849 47.5361 45.2681 47.5365 44.2393 47.6172L44.1592 46.9502C45.218 46.5259 45.3997 45.9399 45.4805 44.7783C45.5612 43.8994 45.5605 42.7379 45.5605 41.8086V34.7676C45.5605 33.8383 45.5612 32.6664 45.4805 31.7979C45.3997 30.6363 45.218 30.0501 44.1592 29.626L44.2393 28.959C45.2781 29.0399 45.9339 29.04 46.5996 29.04C47.2652 29.04 47.982 29.0399 49.0107 28.959L49.0918 29.626ZM9.85059 8.58691V37.8818H14.7334V28.1133H19.6055V37.8818H29.3604V47.6504H0.106445V8.58691H9.85059ZM90.7539 35.7168C90.6732 36.5655 90.6221 37.6165 90.5918 38.2832L90.6221 38.3135C91.3384 36.566 92.559 35.5557 93.7998 35.5557L93.8105 35.5449C94.8894 35.5451 95.5047 36.1513 95.5049 36.8682C95.5049 37.5854 95.2425 37.7978 94.5566 37.7979C93.8706 37.7979 93.5477 37.3232 92.9121 37.3232C91.6614 37.3233 90.6329 38.7878 90.6328 41.3232V42.5654C90.6328 43.3836 90.6322 44.3135 90.6826 45.1318C90.7631 46.2228 91.006 46.6976 92.166 47.041L92.085 47.6465C91.157 47.5658 90.3093 47.5664 89.7041 47.5664C89.0989 47.5664 88.514 47.5658 87.5859 47.6465L87.5049 47.041C88.4833 46.6371 88.6148 46.2228 88.6953 45.1318C88.7761 44.3135 88.7764 43.3836 88.7764 42.5654V41.8994C88.7764 41.081 88.7761 40.2322 88.6953 39.4141C88.6148 38.3333 88.3526 38.0909 87.3945 37.9092V37.3535C88.615 36.7778 89.2704 36.3531 90.1982 35.5049L90.7539 35.7168ZM62.3467 42.1113C61.7919 42.2933 61.3178 42.5057 60.8135 42.7178C59.008 43.4855 58.4834 44.2742 58.4834 44.9912C58.4835 45.7083 58.7156 46.3446 59.8047 46.3447C60.8942 46.3447 62.3467 45.3948 62.3467 43.5664V42.1113ZM80.4541 36.707C78.8402 36.707 77.8111 37.9188 77.4883 39.4844H83.1777C83.1574 37.6868 82.0679 36.7071 80.4541 36.707ZM24.4883 18.3555H29.3604V28.1133H19.6055V13.4658H14.9248V8.58691H24.4883V18.3555ZM78.6992 15.5059C81.2411 15.506 83.1777 17.3852 83.1777 19.9307C83.1777 20.1426 83.1773 20.3242 83.127 20.5361H74.9766C74.9261 20.8594 74.9258 18.8194 74.9258 21.5469C74.926 24.274 76.9938 26.1219 78.6885 26.1221C80.3831 26.1221 81.4125 25.5369 82.502 23.9814L83.1377 24.375C82.3407 26.3549 80.7769 28.0009 78.4268 28.001L78.4062 27.9912C75.0978 27.9912 72.8985 25.6378 72.8984 21.9609C72.8984 18.2839 75.4208 15.5059 78.6992 15.5059ZM67.4512 8.72754C68.9843 8.72756 69.3777 9.25289 70.8906 9.25293C71.5462 9.25293 72.4745 9.22239 73.4023 9.1416L73.6143 9.59668L73.4023 10.5762H70.9209C71.5666 11.2933 71.7988 10.5762 71.7988 13.1719C71.7988 15.768 69.8919 17.6172 67.5615 17.6172C66.3716 17.6171 65.494 17.2731 64.7275 16.6367C63.9005 17.273 63.7188 17.7179 63.7188 18.4854C63.7188 19.2531 64.3243 19.7581 65.5146 19.8086L68.7119 19.9199C71.2842 20.0007 72.5254 21.5266 72.5254 23.5166C72.5252 25.9004 69.4787 27.991 66.4932 27.9912C63.5072 27.9912 61.9932 26.6681 61.9932 24.8701C61.9932 23.6276 62.5992 22.6476 64.1123 21.6172C62.9724 21.2232 62.2051 20.1319 62.2051 19.1016C62.2052 18.0713 62.6798 17.0107 64.0312 15.9805C63.426 15.1623 63.1338 15.6568 63.1338 13.1719C63.134 10.6871 65.121 8.72754 67.4512 8.72754ZM60.0469 15.2734C60.6017 15.2734 61.1064 15.7179 61.1064 16.5664C61.1064 17.415 60.6824 18.577 60.2891 19.668L58.5645 24.5371C58.2724 25.3341 58.2218 25.5162 58.2217 25.6475C58.2217 25.7788 58.191 25.9102 58.4834 25.9102C58.7761 25.9101 59.3004 25.6171 60.6016 23.7686L61.127 24.1426C59.7246 26.87 58.5034 27.6074 57.5752 27.6074C56.9602 27.6072 56.4356 27.0015 56.4355 26.3955C56.4355 25.7894 56.6174 25.2035 57.2529 23.4863L58.8369 19.0918L58.8467 19.1016C59.2197 18.0918 59.3008 17.5869 59.3008 17.3242C59.3008 17.1627 59.351 17.0821 59.0889 17.082C58.8267 17.082 58.3017 17.4962 57.0811 18.9307L56.5771 18.4756C58.0902 16.2837 59.1693 15.2735 60.0469 15.2734ZM54.4785 8.73828C54.6703 10.0918 54.7711 11.0718 54.8516 12.5264L54.085 12.6572C53.742 11.6779 53.4497 11.1224 53.0566 10.6982C52.6531 10.274 52.0473 10.0613 51.543 9.98047C50.8773 9.87949 50.514 9.84962 49.2637 9.84961C48.0129 9.84961 47.861 10.0614 47.7803 11.1221C47.6995 11.9403 47.6992 12.9001 47.6992 13.8496V17.2334C48.6071 17.2334 50.4535 17.1833 51.3008 17.1025C52.4912 16.9712 52.8643 16.5465 53.2578 15.3242L53.8936 15.4561C53.8131 16.4862 53.8125 17.072 53.8125 17.7285C53.8125 18.3851 53.813 19.0019 53.8936 20.0322L53.2578 20.1631C52.8643 18.9408 52.4911 18.5464 51.3008 18.3848C50.4535 18.2837 48.5768 18.2539 47.6992 18.2539V21.8301C47.6992 22.7593 47.75 24.1933 47.7803 24.7188C47.8307 26.0218 48.2852 26.2539 49.4756 26.2539C50.6655 26.2539 51.5633 26.2341 52.2793 26.123C53.2075 25.9917 53.6311 25.618 54.0244 25.0625C54.3472 24.5574 54.6093 24.0014 54.9521 23.0215L55.6689 23.1533C55.5378 24.7392 55.3259 26.0423 55.0332 27.416C53.1067 27.315 50.6957 27.2852 47.3066 27.2852C46.0154 27.2852 45.2984 27.2844 44.2695 27.3652L44.1895 26.709C45.2484 26.2847 45.43 25.6987 45.5107 24.5371L45.5 24.5576C45.5807 23.6788 45.5811 22.5163 45.5811 21.5869V14.5469C45.5811 13.6177 45.5807 12.4458 45.5 11.5771C45.4193 10.4155 45.2379 9.82953 44.1787 9.40527L44.2598 8.73828C45.2988 8.81909 46.005 8.81934 46.6709 8.81934H51.543C52.6223 8.81934 53.4496 8.8191 54.4785 8.73828ZM65.0195 21.8594C64.0915 22.7281 63.7188 23.2843 63.7188 24.4258C63.7189 25.5671 64.6972 26.5165 66.916 26.5166H66.9268C69.9727 26.5166 71.0828 25.2238 71.083 23.9814C71.083 22.739 70.2352 21.9405 68.248 21.9404C67.0577 21.9404 66.109 21.9402 65.0195 21.8594ZM87.1924 8.56348C87.1116 9.41202 87.0616 10.1194 87.0312 10.7861L87.0615 10.8164C87.7778 9.4729 89.3213 8.41211 90.6123 8.41211C91.9035 8.41217 92.9934 9.02827 93.6289 10.0586C93.9718 10.6748 94.1836 11.332 94.1836 12.3926V15.4326C94.1836 16.2508 94.183 17.1808 94.2334 17.999C94.3142 19.0897 94.4758 19.5143 95.4541 19.9082L95.374 20.5137C94.4458 20.4329 93.8601 20.4336 93.2549 20.4336C92.6498 20.4336 92.0645 20.4329 91.1367 20.5137L91.0557 19.9082C92.034 19.5042 92.1653 19.0897 92.2461 17.999C92.3266 17.1808 92.3271 16.2508 92.3271 15.4326V12.625C92.3271 11.1502 91.853 10.1397 90.0273 10.1396C88.2014 10.1396 87.0615 11.382 87.0615 13.0791V15.4326C87.0615 16.2508 87.0609 17.1808 87.1113 17.999C87.1921 19.0896 87.3539 19.5143 88.332 19.9082L88.3428 19.8877L88.2617 20.4941C87.3336 20.4133 86.7488 20.4131 86.1436 20.4131C85.5383 20.4131 84.9533 20.4133 84.0254 20.4941L83.9443 19.8877C84.9228 19.4837 85.054 19.0694 85.1348 17.9785C85.2153 17.1603 85.2148 16.2303 85.2148 15.4121V14.7461C85.2148 13.9279 85.2153 13.079 85.1348 12.2607C85.054 11.18 84.7913 10.9377 83.833 10.7559V10.2002C85.0537 9.6244 85.7097 9.20007 86.6377 8.35156L87.1924 8.56348ZM78.1338 16.6973C76.5198 16.6973 75.4907 17.9099 75.168 19.4756H80.8574C80.8373 17.6775 79.6166 16.6973 78.1338 16.6973ZM34.2324 18.3555H29.3604V8.58691H34.2324V18.3555ZM67.4004 9.76758C66.0991 9.76771 65.1709 10.7787 65.1709 13.001C65.171 15.3239 66.17 16.5458 67.5518 16.5459C68.9336 16.5459 69.7811 15.4857 69.7812 13.2939C69.7812 11.1019 68.8529 9.77832 67.4004 9.77832V9.76758ZM60.874 8C61.6708 8 62.2764 8.60626 62.2764 9.4043C62.2763 10.2023 61.6708 10.8086 60.874 10.8086C60.0771 10.8085 59.4718 10.2022 59.4717 9.4043C59.4717 8.6063 60.077 8.00007 60.874 8Z" fill="#121514"/>
</svg>
