<svg width="121" height="56" viewBox="0 0 121 56" fill="none" xmlns="http://www.w3.org/2000/svg">
<g clip-path="url(#clip0_1027_18339)">
<path d="M40.0793 48H0.000244141V8H40.0793V48ZM13.6956 38.1826H17.0598V30.2324H26.5354V27.2451H17.0598V22.4551H27.0559V19.418H13.6956V38.1826ZM76.4641 21.6377C76.6025 21.6377 76.7132 21.6521 76.7893 21.6729V23.5166L76.6028 23.4961C76.3261 23.4961 76.0771 23.5379 75.8557 23.6279C75.6343 23.7181 75.4815 23.8844 75.4124 24.1201C75.7513 24.6818 75.925 25.2782 75.925 25.9092C75.925 26.4777 75.8134 26.9908 75.592 27.4346C75.3706 27.8783 75.0739 28.2534 74.7141 28.5586C74.3475 28.8637 73.9181 29.0992 73.4338 29.2656C72.9426 29.432 72.4373 29.5156 71.9045 29.5156C71.3443 29.5156 70.8186 29.4253 70.3069 29.252C70.1962 29.3143 70.0855 29.4115 69.9749 29.5293C69.8642 29.6472 69.8157 29.7926 69.8157 29.959C69.8157 30.2503 69.933 30.445 70.1682 30.542C70.4034 30.639 70.6457 30.6875 70.9016 30.6875H72.5344C72.7765 30.6875 73.0323 30.6874 73.3088 30.6943C73.5856 30.7012 73.8699 30.7289 74.1536 30.7705C74.4372 30.8121 74.7138 30.8815 74.9905 30.9717C75.2602 31.0617 75.5093 31.1863 75.7375 31.3525C76.1665 31.6437 76.4785 31.9982 76.6584 32.4004C76.8382 32.8163 76.928 33.26 76.928 33.7383L76.9211 33.752C76.9211 34.3969 76.7752 34.9382 76.4846 35.3682C76.194 35.7979 75.8211 36.1382 75.3645 36.3877C74.9079 36.6374 74.3956 36.8102 73.8284 36.9072C73.261 37.0113 72.7001 37.0605 72.1536 37.0605C71.5448 37.0605 70.9429 37.0189 70.3411 36.9287C69.7391 36.8386 69.1784 36.6098 68.6594 36.2422C68.2789 35.9787 67.989 35.6662 67.7815 35.3057C67.5739 34.9451 67.47 34.5359 67.47 34.0645C67.47 33.6345 67.574 33.2326 67.7747 32.8721C67.9753 32.5115 68.2652 32.2333 68.6458 32.0391C68.3277 31.8588 68.0852 31.6166 67.9124 31.3047C67.7394 30.9928 67.6565 30.6736 67.6565 30.3408C67.6565 29.4879 68.0514 28.8223 68.8333 28.3438C68.5288 28.0387 68.2865 27.6845 68.1135 27.2754C67.9337 26.8662 67.8499 26.4155 67.8499 25.9023C67.8499 25.3199 67.9605 24.7995 68.175 24.3418C68.3894 23.8842 68.6805 23.5033 69.0471 23.1982C69.4138 22.8931 69.843 22.6644 70.3274 22.5049C70.8116 22.3454 71.3374 22.2686 71.8909 22.2686C72.2989 22.2686 72.6863 22.3238 73.0667 22.4277C73.4472 22.5387 73.801 22.6848 74.1331 22.8721C74.3476 22.4422 74.6309 22.1298 74.9836 21.9287C75.3365 21.7346 75.7239 21.6377 76.1389 21.6377H76.4641ZM70.4661 32.5869C70.2101 32.6632 70.0023 32.8095 69.8293 33.0176C69.6565 33.2255 69.5735 33.4887 69.5735 33.8076C69.5735 34.1266 69.6564 34.3695 69.8293 34.5498C70.0023 34.73 70.2101 34.862 70.4661 34.959C70.722 35.056 70.992 35.112 71.2825 35.1396C71.5728 35.1674 71.8356 35.1738 72.0569 35.1738C72.2989 35.1738 72.5689 35.1673 72.8733 35.1465C73.1777 35.1257 73.4619 35.0764 73.7249 34.9863C73.9876 34.8961 74.216 34.7573 74.3958 34.5771C74.5754 34.39 74.6721 34.1334 74.6721 33.8076H74.679C74.6789 33.5026 74.5959 33.267 74.4299 33.1006C74.264 32.9343 74.0634 32.8165 73.8352 32.7402C73.6001 32.664 73.3441 32.6223 73.0745 32.6084C72.8046 32.5946 72.5547 32.5869 72.3264 32.5869H70.4661ZM98.6213 22.3027C99.3546 22.3027 100.04 22.448 100.677 22.7461C101.306 23.0443 101.826 23.5029 102.234 24.127C102.6 24.6746 102.836 25.2295 102.933 25.791C103.029 26.3527 103.085 26.9494 103.085 27.5664L103.091 27.5596C103.078 27.6495 103.071 27.7325 103.071 27.8086V28.2246H96.4631C96.4631 28.606 96.5252 28.9668 96.6428 29.3135C96.7605 29.6533 96.9476 29.945 97.1829 30.1738C97.3626 30.34 97.57 30.4788 97.7981 30.6035C98.0333 30.7214 98.3107 30.7832 98.6428 30.7832C98.9747 30.7832 99.2653 30.7491 99.4866 30.6797C99.7079 30.6104 99.9083 30.4857 100.081 30.3125C100.31 30.0837 100.469 29.8056 100.559 29.4727H102.835C102.807 29.7639 102.711 30.083 102.537 30.4365C102.364 30.7832 102.185 31.0749 101.997 31.3037C101.583 31.796 101.077 32.1571 100.496 32.3721C99.9152 32.5868 99.3065 32.6973 98.677 32.6973C97.9921 32.6973 97.4038 32.5861 96.8987 32.3643C96.4008 32.1424 95.9511 31.8448 95.5569 31.4775C95.0656 30.9921 94.6849 30.4158 94.429 29.7432C94.1661 29.0706 94.0413 28.3287 94.0413 27.5176C94.0413 26.7063 94.1597 25.9784 94.3948 25.2988C94.63 24.6193 94.9897 24.0361 95.467 23.5576C95.8337 23.1764 96.2832 22.8714 96.8088 22.6426C97.3346 22.4138 97.9366 22.3028 98.6213 22.3027ZM118.708 22.5312H121.199V24.4941H118.708V29.3135C118.708 29.6948 118.799 29.9721 118.972 30.1455C119.151 30.3186 119.428 30.4023 119.808 30.4023C120.064 30.4023 120.3 30.4017 120.522 30.3809C120.743 30.3671 121.02 30.3463 121.344 30.3047V32.3018H121.351C120.667 32.482 119.989 32.5654 119.318 32.5654C118.315 32.5654 117.566 32.2948 117.075 31.7539C116.585 31.2131 116.335 30.4713 116.335 29.5146V24.4873H114.53V22.5244H116.335V20.0215L118.708 19.4316V22.5312ZM83.2971 22.29C83.9956 22.2901 84.5768 22.4356 85.0471 22.7197C85.5177 23.004 85.8772 23.4069 86.1262 23.9131C86.4169 23.393 86.8185 22.9903 87.3303 22.7129C87.8423 22.4356 88.4376 22.2969 89.1086 22.2969C90.174 22.2969 90.9694 22.6161 91.509 23.2607C92.0487 23.9056 92.3196 24.7383 92.3196 25.7646V32.4492H89.9602L89.9456 32.4355V26.2842C89.9455 25.6741 89.8425 25.2021 89.635 24.8623C89.4274 24.5296 89.0257 24.3565 88.4309 24.3564C88.0918 24.3564 87.7941 24.4402 87.5588 24.5928C87.3168 24.7523 87.1163 24.9602 86.9641 25.2236C86.805 25.4871 86.6867 25.771 86.6106 26.0898C86.5344 26.4087 86.5002 26.7213 86.5002 27.0264V32.4355H84.1477V26.2842C84.1477 25.6741 84.0438 25.2021 83.8362 24.8623C83.6286 24.5299 83.2276 24.3565 82.6331 24.3564C82.2941 24.3564 81.9963 24.4402 81.761 24.5928C81.5189 24.7523 81.3177 24.9602 81.1516 25.2236C80.9858 25.487 80.8683 25.7711 80.7922 26.0898C80.7161 26.4087 80.6819 26.7213 80.6819 27.0264V32.4355H78.3293V22.5332H80.301L80.4875 23.8506C80.7643 23.3929 81.1381 23.0179 81.6086 22.7266C82.079 22.4354 82.6399 22.29 83.2971 22.29ZM61.4084 21.1592H54.552V24.7861H60.6682V27.0127H54.552V32.4424H52.1028V18.9336H61.4084V21.1592ZM109.997 22.2832C110.53 22.2832 111 22.3736 111.416 22.5469C111.824 22.7272 112.177 22.9701 112.46 23.2822C112.745 23.5942 112.967 23.9684 113.118 24.4053C113.271 24.8421 113.346 25.314 113.346 25.8271V32.4355H110.967V26.3604C110.967 25.778 110.85 25.32 110.628 24.9873C110.4 24.6545 109.97 24.4951 109.333 24.4951C108.919 24.4952 108.566 24.6129 108.289 24.8486C108.012 25.0844 107.791 25.3833 107.625 25.7578C107.459 26.1252 107.361 26.5549 107.341 27.04C107.313 27.5324 107.299 27.9833 107.299 28.3994V32.4355H104.927V22.5332H106.919L107.092 23.8086C107.383 23.2886 107.797 22.8999 108.337 22.6572C108.877 22.4076 109.43 22.2833 109.997 22.2832ZM65.6292 32.4346H63.2151V22.5322H65.6292V32.4346ZM71.8909 24.0791C71.3512 24.0791 70.9219 24.2518 70.6106 24.5986C70.2993 24.9452 70.1478 25.3891 70.1477 25.9229C70.1477 26.4569 70.2992 26.8945 70.6106 27.2412C70.9219 27.581 71.3512 27.7539 71.8909 27.7539C72.4305 27.7539 72.8598 27.5809 73.1711 27.2412C73.4825 26.9014 73.634 26.4569 73.634 25.9229C73.634 25.3891 73.4755 24.9522 73.1711 24.5986C72.8598 24.2449 72.4305 24.0791 71.8909 24.0791ZM98.6077 24.1885C98.2411 24.1885 97.9157 24.2579 97.6389 24.3965C97.3622 24.5352 97.1343 24.7234 96.9543 24.9521C96.7746 25.1671 96.6495 25.396 96.5735 25.6387C96.4974 25.8812 96.4564 26.1655 96.4426 26.498H100.718V26.4912C100.704 25.7702 100.504 25.1878 100.11 24.7578C99.9436 24.5775 99.7425 24.4389 99.4934 24.3418C99.2443 24.2378 98.9536 24.1885 98.6077 24.1885ZM64.4104 18.9473C65.2198 18.9473 65.8214 19.5989 65.8215 20.3408H65.8147C65.8147 21.1175 65.2337 21.7002 64.4104 21.7002C63.5871 21.7002 63.0061 21.0828 63.0061 20.3408C63.0062 19.5989 63.601 18.9473 64.4104 18.9473Z" fill="#121514"/>
</g>
<defs>
<clipPath id="clip0_1027_18339">
<rect width="121" height="56" fill="white"/>
</clipPath>
</defs>
</svg>
