<svg width="141" height="56" viewBox="0 0 141 56" fill="none" xmlns="http://www.w3.org/2000/svg">
<path d="M35.2046 42.3145V48H6.77783V42.3145H35.2046ZM59.3677 19.668C61.725 19.668 63.5257 20.6801 64.6392 22.542L64.5405 20.1572C64.5399 20.1272 64.545 20.0972 64.5562 20.0693C64.5674 20.0413 64.5845 20.0155 64.606 19.9941C64.6273 19.9728 64.6531 19.9565 64.6812 19.9453C64.7093 19.9341 64.7398 19.9279 64.77 19.9287H67.2915C67.3218 19.9279 67.3522 19.9341 67.3804 19.9453C67.4083 19.9565 67.4342 19.9729 67.4556 19.9941C67.4769 20.0155 67.4931 20.0413 67.5044 20.0693C67.5156 20.0973 67.5216 20.1271 67.521 20.1572L67.4556 26.6572L67.4878 35.6064C67.5175 40.4398 64.7999 43.1494 59.9878 43.1494C56.0915 43.215 53.0141 41.5487 52.7192 37.8906C52.7186 37.8606 52.7237 37.8306 52.7349 37.8027C52.7461 37.7746 52.7632 37.7489 52.7847 37.7275C52.8061 37.7062 52.8318 37.6899 52.8599 37.6787C52.888 37.6675 52.9185 37.6613 52.9487 37.6621H55.438C55.569 37.6621 55.6676 37.76 55.7007 37.8906C55.9951 40.0135 57.697 40.9951 60.0542 40.9951C62.8044 40.9951 64.7035 39.3619 64.7036 35.5732V33.6787C63.6232 35.5408 61.8226 36.6503 59.4663 36.6504C54.7518 36.6504 52.2632 33.0911 52.2632 28.29C52.2632 23.5216 54.8169 19.668 59.3677 19.668ZM20.9917 8C32.0928 8.00017 41.0923 17.0012 41.0923 28.1016C41.0922 33.6517 38.8417 38.6754 35.2046 42.3125V13.8877H6.77783V42.3076C3.14073 38.6709 0.890222 33.6493 0.890137 28.1016C0.890137 17.0011 9.89046 8 20.9917 8ZM128.304 19.9297C128.371 19.9313 128.437 19.954 128.49 19.9951C128.543 20.0362 128.581 20.0936 128.599 20.1582L133.412 32.8955L137.472 20.1582C137.49 20.0937 137.529 20.0362 137.582 19.9951C137.634 19.9541 137.699 19.9314 137.766 19.9297H140.385C140.516 19.9297 140.582 20.0275 140.549 20.1582L132.888 42.0723C132.87 42.1368 132.832 42.1942 132.779 42.2354C132.726 42.2765 132.66 42.3001 132.593 42.3018H130.204C130.177 42.3006 130.15 42.2931 130.126 42.2803C130.103 42.2674 130.082 42.2495 130.066 42.2275C130.05 42.2056 130.039 42.1799 130.035 42.1533C130.03 42.1266 130.032 42.0983 130.04 42.0723L131.874 36.7822L125.26 20.1582C125.194 20.0275 125.26 19.9297 125.391 19.9297H128.304ZM76.6714 19.6016C79.061 19.6017 80.8613 20.6142 81.9751 22.4756L81.9097 20.1562C81.909 20.1262 81.9141 20.0963 81.9253 20.0684C81.9366 20.0403 81.9537 20.0145 81.9751 19.9932C81.9965 19.9718 82.0222 19.9545 82.0503 19.9434C82.0782 19.9323 82.1082 19.927 82.1382 19.9277H84.6909C84.7209 19.927 84.7509 19.9323 84.7788 19.9434C84.8069 19.9545 84.8326 19.9718 84.854 19.9932C84.8754 20.0145 84.8925 20.0403 84.9038 20.0684C84.915 20.0963 84.9201 20.1262 84.9194 20.1562L84.8218 28.1904L84.9233 36.5205C84.9239 36.5508 84.9182 36.5813 84.9067 36.6094C84.8952 36.6375 84.8777 36.6633 84.856 36.6846C84.8342 36.7059 84.8082 36.7225 84.7798 36.7334C84.7514 36.7443 84.7213 36.7493 84.6909 36.748H82.1714C82.1412 36.7488 82.1106 36.7436 82.0825 36.7324C82.0545 36.7212 82.0287 36.7039 82.0073 36.6826C81.9862 36.6614 81.9697 36.6361 81.9585 36.6084C81.9472 36.5803 81.9412 36.5498 81.9419 36.5195L82.0073 34.0371C80.8617 35.9313 79.0583 37.0742 76.605 37.0742C72.0544 37.074 69.6313 33.2528 69.6313 28.3867C69.6314 23.5205 72.2187 19.6016 76.6714 19.6016ZM99.9146 19.6016C102.304 19.6016 104.105 20.6141 105.218 22.4756L105.153 20.1562C105.152 20.1261 105.158 20.0963 105.169 20.0684C105.181 20.0404 105.197 20.0145 105.218 19.9932C105.24 19.9718 105.265 19.9546 105.293 19.9434C105.322 19.9322 105.352 19.9269 105.382 19.9277H107.936C107.966 19.927 107.997 19.9322 108.025 19.9434C108.053 19.9545 108.078 19.972 108.099 19.9932C108.121 20.0145 108.138 20.0403 108.149 20.0684C108.16 20.0963 108.166 20.1261 108.166 20.1562L108.067 28.1904L108.166 36.5195C108.166 36.5496 108.16 36.5795 108.149 36.6074C108.138 36.6355 108.121 36.6613 108.099 36.6826C108.078 36.7039 108.052 36.7212 108.024 36.7324C107.996 36.7435 107.966 36.7488 107.936 36.748H105.415C105.384 36.7487 105.355 36.7435 105.327 36.7324C105.299 36.7212 105.273 36.704 105.251 36.6826C105.23 36.6613 105.213 36.6363 105.202 36.6084C105.19 36.5803 105.185 36.5498 105.186 36.5195L105.251 34.0371C104.106 35.9315 102.304 37.0742 99.8491 37.0742C95.2983 37.0742 92.8755 33.2529 92.8755 28.3867C92.8755 23.5206 95.462 19.6017 99.9146 19.6016ZM90.5132 13.8867C90.5433 13.886 90.5731 13.8912 90.6011 13.9023C90.6292 13.9135 90.6548 13.9308 90.6763 13.9521C90.6976 13.9734 90.7148 13.9984 90.7261 14.0264C90.7374 14.0545 90.7424 14.085 90.7417 14.1152L90.644 25.1543L90.7417 36.5215C90.7424 36.5517 90.7374 36.5823 90.7261 36.6104C90.7148 36.6383 90.6976 36.6633 90.6763 36.6846C90.6548 36.7059 90.6292 36.7232 90.6011 36.7344C90.5731 36.7455 90.5432 36.7507 90.5132 36.75L87.9907 36.748C87.9607 36.7487 87.9308 36.7435 87.9028 36.7324C87.8748 36.7212 87.849 36.704 87.8276 36.6826C87.8064 36.6613 87.7891 36.6363 87.7778 36.6084C87.7666 36.5803 87.7615 36.5498 87.7622 36.5195L87.8599 25.1865L87.7622 14.1152C87.7615 14.085 87.7666 14.0544 87.7778 14.0264C87.7891 13.9985 87.8064 13.9734 87.8276 13.9521C87.849 13.9308 87.8748 13.9136 87.9028 13.9023C87.9308 13.8912 87.9607 13.886 87.9907 13.8867H90.5132ZM113.17 19.9297C113.301 19.9298 113.465 19.9954 113.53 20.126L117.328 26.2979L120.995 20.126C121.035 20.0673 121.089 20.0184 121.152 19.9844C121.214 19.9505 121.284 19.9317 121.355 19.9297H123.909C123.932 19.9287 123.955 19.9346 123.975 19.9463C123.995 19.958 124.011 19.9755 124.021 19.9961C124.031 20.0167 124.035 20.0396 124.033 20.0625C124.03 20.0856 124.021 20.1081 124.006 20.126L119.162 27.9316L124.563 36.5547C124.577 36.5726 124.586 36.5945 124.588 36.6172C124.591 36.6398 124.586 36.6624 124.576 36.6826C124.565 36.703 124.549 36.7198 124.53 36.7314C124.51 36.743 124.488 36.7488 124.465 36.748H121.551C121.42 36.7479 121.256 36.683 121.191 36.5547L117.001 29.6963L112.81 36.5547C112.744 36.6849 112.581 36.748 112.45 36.748H109.797C109.775 36.7487 109.752 36.743 109.733 36.7314C109.713 36.7198 109.697 36.703 109.687 36.6826C109.677 36.6624 109.672 36.6397 109.674 36.6172C109.677 36.5945 109.686 36.5726 109.7 36.5547L115.167 27.834L110.158 20.126C110.143 20.1081 110.134 20.0856 110.131 20.0625C110.129 20.0397 110.133 20.0166 110.143 19.9961C110.153 19.9754 110.17 19.958 110.19 19.9463C110.21 19.9346 110.233 19.9286 110.256 19.9297H113.17ZM77.1968 21.7891C74.1194 21.8872 72.6792 24.4663 72.6792 28.1582C72.6773 32.1769 74.1826 34.8857 77.3579 34.8857H77.3608C80.2742 34.8855 82.0421 32.73 82.0747 28.4844C82.1072 24.4019 80.5362 21.9854 77.7534 21.7891H77.1968ZM100.441 21.7891C97.3632 21.8872 95.9224 24.4663 95.9224 28.1582C95.9205 32.1769 97.4264 34.8856 100.602 34.8857H100.604C103.518 34.8857 105.286 32.7303 105.319 28.4844C105.351 24.4021 103.78 21.9856 100.998 21.7891H100.441ZM59.8218 21.79C56.8102 21.8883 55.272 24.3701 55.272 28.1914C55.2736 32.242 56.9102 34.5609 60.1187 34.5283V34.5273C62.8688 34.5272 64.669 32.5674 64.7017 28.4199C64.7346 24.403 63.1632 21.9864 60.3804 21.79H59.8218Z" fill="#121514"/>
</svg>
