<svg width="114" height="56" viewBox="0 0 114 56" fill="none" xmlns="http://www.w3.org/2000/svg">
<g clip-path="url(#clip0_1027_18345)">
<path d="M32.3749 24.3252C32.65 24.0488 33.0963 24.0484 33.372 24.3242L36.3886 27.3477C37.4899 28.4519 37.4899 30.2424 36.3886 31.3467L20.6015 47.1719C19.5001 48.2755 17.7145 48.2755 16.6132 47.1719L0.826069 31.3467C-0.275356 30.2424 -0.275356 28.4519 0.826069 27.3477L3.84267 24.3242C4.11835 24.048 4.56553 24.0484 4.84072 24.3252L18.1083 37.6689C18.3838 37.946 18.8318 37.946 19.1073 37.6689L32.3749 24.3252ZM51.4442 11.2178C51.8335 11.2178 52.1471 11.5298 52.1474 11.9199V27.6982C52.1477 28.6458 53.3863 29.0012 53.8856 28.1963C55.6269 25.3904 57.3203 22.5538 59.0351 19.7314C59.1632 19.5208 59.3906 19.3944 59.6366 19.3945L66.5175 19.3984C67.0673 19.3984 67.4055 20.0017 67.12 20.4727L59.4071 33.1768C59.3122 33.333 59.3161 33.5302 59.4169 33.6826C62.222 37.9168 65.0273 42.1509 67.831 46.3857C68.1416 46.8555 67.8053 47.4833 67.2431 47.4834H60.3983C60.1624 47.4832 59.942 47.3649 59.8114 47.168C57.8374 44.1893 55.7951 41.2453 53.8944 38.2188C53.39 37.4161 52.1474 37.7708 52.1474 38.7197V46.7725C52.1473 47.1628 51.8314 47.4795 51.4423 47.4795H45.0985C44.7092 47.4795 44.3936 47.1754 44.3935 46.7852V11.9189C44.3935 11.5287 44.7073 11.2179 45.0966 11.2178H51.4442ZM76.2489 19.4023C76.6383 19.4024 76.954 19.719 76.954 20.1094V46.7725C76.9538 47.1626 76.6382 47.4785 76.2489 47.4785H69.9052C69.5159 47.4785 69.1993 47.1627 69.1991 46.7725V20.1094C69.1991 19.7192 69.5152 19.4026 69.9042 19.4023H76.2489ZM87.1093 10.043C87.4987 10.043 87.8143 10.3597 87.8143 10.75V46.7725C87.8142 47.1627 87.4986 47.4785 87.1093 47.4785H80.7655C80.3764 47.4785 80.0606 47.1627 80.0604 46.7725V10.75C80.0604 10.3597 80.3763 10.043 80.7655 10.043H87.1093ZM109.468 19.4023C112.064 19.4025 114.168 21.5121 114.168 24.1143V46.7725C114.168 47.1627 113.852 47.4785 113.463 47.4785H107.119C106.73 47.4785 106.414 47.1627 106.414 46.7725V28.3789C106.414 27.7286 105.887 27.2012 105.238 27.2012H99.8417C99.1931 27.2014 98.6671 27.7288 98.6669 28.3789V46.7725C98.6667 47.1627 98.3511 47.4785 97.9618 47.4785H91.6181C91.2287 47.4785 90.9132 47.1627 90.913 46.7725V24.1143C90.9131 21.512 93.0173 19.4024 95.6132 19.4023H109.468ZM16.6132 11.5234C17.7146 10.4194 19.5009 10.4194 20.6024 11.5234L30.1776 21.123C30.4528 21.3987 30.4531 21.8449 30.1786 22.1211L25.6854 26.6406C25.4101 26.9175 24.9628 26.9174 24.6874 26.6406L19.1073 21.0293C18.8318 20.7522 18.3838 20.7522 18.1083 21.0293L12.5292 26.6406C12.2536 26.9177 11.8057 26.9177 11.5302 26.6406L7.03701 22.1211C6.76244 21.8449 6.76295 21.3978 7.03798 21.1221L16.6132 11.5234ZM73.079 8C75.4328 8 77.3436 9.91396 77.3436 12.2754C77.3434 14.6366 75.4327 16.5498 73.079 16.5498C70.7253 16.5498 68.8146 14.6366 68.8143 12.2754C68.8143 9.91399 70.7252 8.00004 73.079 8Z" fill="#121514"/>
</g>
<defs>
<clipPath id="clip0_1027_18345">
<rect width="114" height="56" fill="white"/>
</clipPath>
</defs>
</svg>
