<svg width="188" height="56" viewBox="0 0 188 56" fill="none" xmlns="http://www.w3.org/2000/svg">
<g clip-path="url(#clip0_1027_18355)">
<path fill-rule="evenodd" clip-rule="evenodd" d="M-0.106887 16H20.6912V19.3586H3.25552V23.5014H20.6137V40H-0.114258V36.6414H17.2513V32.8485H-0.106887V16ZM17.2513 29.4899V26.86H3.25552V29.4899H17.2513ZM25.0895 16H28.4521V27.3619H43.7233V16H47.0859V30.7206H37.7689V40H34.4065V30.7206H25.0895V16ZM51.6944 16H73.6907V40H70.3281V19.3586H64.5328V30.1341H61.1703V19.3586H55.0569V40H51.6944V16ZM78.1592 16H99.4549V40H78.1592V16ZM81.5217 19.3586V26.4314H96.0925V19.3586H81.5217ZM96.0925 29.7901H81.5217V36.6414H96.0925V29.7901ZM104.812 40V16H108.174V40H104.812ZM113.531 16H134.827V40H113.531V16ZM116.894 19.3586V36.6414H131.464V19.3586H116.894ZM145.984 19.3586H138.189V16H156.823V19.3586H149.347V40H145.984V19.3586ZM161.042 40V16H164.406V40H161.042ZM168.499 16H188.114V19.3586H171.863V36.6414H188.114V40H168.499V16Z" fill="#121514"/>
</g>
<defs>
<clipPath id="clip0_1027_18355">
<rect width="188" height="56" fill="white"/>
</clipPath>
</defs>
</svg>
